<?xml version="1.0" standalone="no"?>
<!DOCTYPE svg PUBLIC "-//W3C//DTD SVG 20010904//EN"
 "http://www.w3.org/TR/2001/REC-SVG-20010904/DTD/svg10.dtd">
<svg version="1.0" xmlns="http://www.w3.org/2000/svg"
 width="512.000000pt" height="512.000000pt" viewBox="0 0 512.000000 512.000000"
 preserveAspectRatio="xMidYMid meet">
<metadata>
Created by potrace 1.14, written by Peter Selinger 2001-2017
</metadata>
<g transform="translate(0.000000,512.000000) scale(0.100000,-0.100000)"
fill="#000000" stroke="none">
<path d="M696 3890 l-226 -229 0 -240 0 -240 313 2 312 2 3 106 3 106 39 38
39 38 243 3 242 2 44 -44 43 -44 -1 -206 0 -207 -41 -48 -40 -48 -201 0 c-110
0 -202 -2 -205 -4 -2 -3 -4 -90 -4 -193 1 -333 0 -405 -5 -418 -4 -9 4 -16 23
-20 35 -7 125 -2 141 8 7 4 12 4 12 -1 0 -4 54 -9 121 -10 l120 -2 39 -43 39
-43 0 -210 1 -210 -43 -47 -42 -47 -240 1 -239 1 -43 46 c-43 46 -43 46 -44
126 0 44 -2 91 -2 104 l-2 24 -303 1 c-167 0 -308 -1 -313 -4 -7 -5 -11 -168
-9 -405 l0 -70 53 -55 c28 -30 51 -59 49 -65 -2 -5 -1 -7 3 -3 4 4 55 -43 113
-104 59 -60 133 -135 165 -166 31 -30 57 -61 57 -68 0 -8 6 -11 13 -8 7 2 235
6 507 8 l495 3 207 209 c114 115 216 221 227 235 19 25 20 40 19 497 l0 472
-47 42 c-25 24 -61 56 -80 71 -19 16 -30 32 -25 36 5 4 41 35 80 70 l72 62 -2
479 -1 480 -58 57 c-32 32 -133 135 -224 230 l-166 172 -502 0 -503 0 -226
-229z m274 -640 c0 -5 -2 -10 -4 -10 -3 0 -8 5 -11 10 -3 6 -1 10 4 10 6 0 11
-4 11 -10z m780 -1840 c0 -5 -2 -10 -4 -10 -3 0 -8 5 -11 10 -3 6 -1 10 4 10
6 0 11 -4 11 -10z"/>
<path d="M2988 3894 c-122 -123 -225 -229 -228 -234 -3 -5 -6 -503 -6 -1105
l1 -1095 80 -78 c44 -44 145 -146 225 -227 l145 -149 503 0 503 -1 215 220
c118 121 219 225 224 231 7 8 11 177 10 489 l0 478 -129 131 c-72 72 -171 175
-221 228 l-92 97 -351 1 c-194 1 -382 1 -419 0 l-68 -1 0 253 0 253 43 48 42
48 245 0 245 -1 42 -47 c41 -46 43 -50 44 -118 1 -38 0 -85 -1 -103 l-2 -32
311 1 311 2 0 237 0 237 -227 231 -228 230 -498 0 -497 0 -222 -224z m-124
-259 c3 -8 3 -15 0 -15 -3 0 -12 7 -20 15 -13 13 -13 15 -1 15 8 0 17 -7 21
-15z m736 -55 c0 -5 -5 -10 -11 -10 -5 0 -7 5 -4 10 3 6 8 10 11 10 2 0 4 -4
4 -10z m540 -219 c0 -6 -4 -13 -10 -16 -5 -3 -10 1 -10 9 0 9 5 16 10 16 6 0
10 -4 10 -9z m293 -788 c-7 -2 -21 -2 -30 0 -10 3 -4 5 12 5 17 0 24 -2 18 -5z
m-373 -303 c0 -5 -2 -10 -4 -10 -3 0 -8 5 -11 10 -3 6 -1 10 4 10 6 0 11 -4
11 -10z m-227 -26 l114 6 47 -50 46 -49 0 -208 0 -208 -46 -47 -46 -48 -241 0
-242 1 -43 49 -42 49 2 253 3 253 147 0 c80 0 150 3 154 7 4 4 13 3 20 -3 8
-7 53 -8 127 -5z m342 -754 c3 -5 1 -10 -4 -10 -6 0 -11 5 -11 10 0 6 2 10 4
10 3 0 8 -4 11 -10z"/>
<path d="M85 2050 c-3 -5 -1 -10 4 -10 6 0 11 5 11 10 0 6 -2 10 -4 10 -3 0
-8 -4 -11 -10z"/>
<path d="M48 1513 c7 -3 16 -2 19 1 4 3 -2 6 -13 5 -11 0 -14 -3 -6 -6z"/>
<path d="M140 1306 c0 -9 -4 -14 -10 -11 -5 3 -10 1 -10 -4 0 -6 5 -11 10 -11
13 0 25 28 16 37 -3 4 -6 -1 -6 -11z"/>
<path d="M321 1154 c0 -11 3 -14 6 -6 3 7 2 16 -1 19 -3 4 -6 -2 -5 -13z"/>
<path d="M60 1080 c0 -5 7 -10 16 -10 8 0 12 5 9 10 -3 6 -10 10 -16 10 -5 0
-9 -4 -9 -10z"/>
<path d="M100 1080 c0 -5 5 -10 11 -10 5 0 7 5 4 10 -3 6 -8 10 -11 10 -2 0
-4 -4 -4 -10z"/>
<path d="M186 1016 c7 -19 20 -21 30 -3 4 6 4 9 -1 5 -4 -4 -14 -3 -22 4 -11
8 -12 7 -7 -6z"/>
<path d="M473 879 c11 -7 23 -7 28 -2 5 5 -3 9 -19 11 -24 1 -25 0 -9 -9z"/>
<path d="M291 864 c0 -11 3 -14 6 -6 3 7 2 16 -1 19 -3 4 -6 -2 -5 -13z"/>
<path d="M160 860 c0 -5 5 -10 11 -10 5 0 7 5 4 10 -3 6 -8 10 -11 10 -2 0 -4
-4 -4 -10z"/>
<path d="M48 843 c7 -3 16 -2 19 1 4 3 -2 6 -13 5 -11 0 -14 -3 -6 -6z"/>
<path d="M84 833 c3 -17 -3 -25 -24 -35 -16 -7 -26 -16 -24 -20 8 -13 23 -9
41 11 9 11 23 17 32 14 14 -5 14 -4 0 8 -9 8 -20 21 -23 29 -3 8 -4 5 -2 -7z"/>
<path d="M4701 794 c0 -11 3 -14 6 -6 3 7 2 16 -1 19 -3 4 -6 -2 -5 -13z"/>
<path d="M4861 774 c0 -11 3 -14 6 -6 3 7 2 16 -1 19 -3 4 -6 -2 -5 -13z"/>
<path d="M325 730 c-16 -7 -17 -9 -3 -9 9 -1 20 4 23 9 7 11 7 11 -20 0z"/>
<path d="M38 723 c7 -3 16 -2 19 1 4 3 -2 6 -13 5 -11 0 -14 -3 -6 -6z"/>
<path d="M160 710 c0 -5 5 -10 11 -10 5 0 7 5 4 10 -3 6 -8 10 -11 10 -2 0 -4
-4 -4 -10z"/>
<path d="M4931 704 c0 -11 3 -14 6 -6 3 7 2 16 -1 19 -3 4 -6 -2 -5 -13z"/>
<path d="M20 702 c0 -5 16 -8 35 -8 19 1 35 4 35 8 0 5 -16 8 -35 8 -19 0 -35
-4 -35 -8z"/>
<path d="M210 696 c0 -8 -6 -17 -12 -19 -10 -4 -10 -6 0 -6 7 -1 20 5 27 13
12 12 12 15 0 20 -9 3 -15 0 -15 -8z"/>
<path d="M222 654 c-7 -8 -8 -14 -3 -14 10 0 25 19 20 25 -2 1 -10 -3 -17 -11z"/>
<path d="M153 624 c-5 -13 -7 -13 -14 -2 -6 9 -9 7 -9 -9 0 -16 4 -21 15 -17
8 4 15 12 15 19 0 7 6 16 13 18 9 4 9 6 -1 6 -7 1 -15 -6 -19 -15z"/>
<path d="M296 627 c3 -10 9 -15 12 -12 3 3 0 11 -7 18 -10 9 -11 8 -5 -6z"/>
<path d="M30 610 c0 -5 5 -10 10 -10 6 0 10 -7 10 -16 0 -14 2 -14 15 0 22 22
18 36 -10 36 -14 0 -25 -4 -25 -10z"/>
<path d="M216 585 c-7 -20 6 -26 21 -10 10 10 9 14 -2 18 -7 3 -16 -1 -19 -8z"/>
<path d="M174 575 c3 -21 16 -31 16 -12 0 9 -4 18 -9 21 -5 4 -8 -1 -7 -9z"/>
<path d="M96 561 c-9 -10 -27 -17 -40 -16 -19 2 -23 -1 -18 -17 3 -14 8 -16
15 -9 16 16 27 13 27 -7 0 -10 7 -19 15 -19 8 0 15 4 15 9 0 5 5 6 10 3 6 -3
10 0 10 7 0 9 3 9 10 -2 7 -10 10 -11 10 -2 0 7 -8 16 -17 19 -25 9 -34 25
-21 40 16 20 3 15 -16 -6z m1 -33 c-3 -8 -6 -5 -6 6 -1 11 2 17 5 13 3 -3 4
-12 1 -19z"/>
<path d="M253 573 c-18 -7 -16 -20 2 -20 8 0 15 6 15 14 0 7 -1 13 -2 12 -2 0
-9 -3 -15 -6z"/>
<path d="M565 570 c3 -5 8 -10 11 -10 2 0 4 5 4 10 0 6 -5 10 -11 10 -5 0 -7
-4 -4 -10z"/>
<path d="M4771 564 c0 -11 3 -14 6 -6 3 7 2 16 -1 19 -3 4 -6 -2 -5 -13z"/>
<path d="M314 548 c-3 -4 2 -8 10 -8 8 0 17 4 20 8 3 5 -2 9 -10 9 -8 0 -17
-4 -20 -9z"/>
<path d="M4821 534 c0 -11 3 -14 6 -6 3 7 2 16 -1 19 -3 4 -6 -2 -5 -13z"/>
<path d="M325 504 c-16 -12 -17 -16 -6 -23 9 -6 10 -11 2 -15 -16 -10 -13 -26
4 -20 8 3 14 9 13 12 0 4 0 18 1 32 1 18 4 21 10 12 7 -11 9 -11 14 2 8 20
-12 20 -38 0z"/>
<path d="M376 492 c-3 -5 1 -9 9 -9 8 0 15 4 15 9 0 4 -4 8 -9 8 -6 0 -12 -4
-15 -8z"/>
<path d="M451 484 c0 -11 3 -14 6 -6 3 7 2 16 -1 19 -3 4 -6 -2 -5 -13z"/>
<path d="M490 482 c0 -9 5 -24 11 -32 9 -12 10 -11 6 7 -3 12 0 24 6 26 6 2 3
6 -6 10 -12 4 -17 1 -17 -11z"/>
<path d="M5032 480 c0 -14 2 -19 5 -12 2 6 2 18 0 25 -3 6 -5 1 -5 -13z"/>
<path d="M220 474 l-35 -13 38 1 c23 1 37 7 37 15 0 7 -1 12 -2 12 -2 -1 -19
-7 -38 -15z"/>
<path d="M169 476 c-3 -4 -58 -12 -101 -15 -19 -2 -6 -33 18 -43 20 -9 30 -9
46 1 19 12 20 11 16 -18 -2 -17 -2 -31 2 -31 15 0 30 26 30 51 0 25 -3 27 -32
24 -18 -1 -37 -4 -43 -6 -5 -2 -11 1 -13 6 -1 6 14 10 33 11 20 0 41 6 47 12
7 7 10 12 7 12 -3 0 -8 -2 -10 -4z"/>
<path d="M411 463 c-1 -19 4 -23 30 -23 17 0 28 4 24 10 -3 6 -15 10 -25 10
-10 0 -21 6 -23 13 -3 6 -6 2 -6 -10z"/>
<path d="M370 453 c0 -8 5 -13 12 -11 18 6 21 25 3 25 -8 0 -15 -7 -15 -14z"/>
<path d="M540 450 c0 -11 2 -20 4 -20 2 0 6 9 9 20 3 11 1 20 -4 20 -5 0 -9
-9 -9 -20z"/>
<path d="M252 430 c0 -14 2 -19 5 -12 2 6 2 18 0 25 -3 6 -5 1 -5 -13z"/>
<path d="M291 434 c0 -11 3 -14 6 -6 3 7 2 16 -1 19 -3 4 -6 -2 -5 -13z"/>
<path d="M222 428 c-7 -7 -12 -16 -12 -21 0 -5 7 -1 16 8 9 9 14 18 12 20 -2
3 -10 -1 -16 -7z"/>
<path d="M908 413 c7 -3 16 -2 19 1 4 3 -2 6 -13 5 -11 0 -14 -3 -6 -6z"/>
<path d="M433 395 c-7 -8 -13 -20 -13 -27 0 -10 2 -10 9 0 11 19 24 17 32 -5
7 -17 8 -17 8 0 1 9 6 17 11 17 6 0 10 8 10 18 0 14 -2 15 -10 2 -6 -10 -10
-11 -10 -2 0 16 -22 15 -37 -3z"/>
<path d="M500 395 c0 -9 6 -12 15 -9 8 4 15 10 15 15 0 5 -7 9 -15 9 -8 0 -15
-7 -15 -15z"/>
<path d="M362 375 c-2 -23 -4 -27 -12 -15 -8 13 -10 12 -10 -2 0 -10 5 -18 11
-18 8 0 8 -5 -1 -15 -14 -17 -40 -20 -40 -4 0 5 -5 7 -11 3 -8 -4 -8 -9 0 -17
22 -22 13 -46 -18 -45 -15 1 -33 -2 -40 -6 -15 -10 -14 -43 2 -50 9 -5 9 -7
-1 -12 -8 -4 0 -16 24 -35 34 -27 39 -28 55 -14 13 13 18 14 23 3 3 -7 5 -4 2
8 -3 17 1 20 20 16 18 -3 24 0 24 14 0 16 -2 17 -10 4 -7 -11 -10 -11 -10 -2
0 7 -5 10 -11 7 -12 -8 -39 23 -38 45 0 10 3 8 9 -5 5 -11 9 -14 9 -7 1 7 6
10 11 7 6 -3 10 0 10 7 0 10 2 10 9 0 6 -11 15 -8 36 15 l28 28 -22 -32 c-12
-18 -18 -33 -13 -33 6 0 8 -9 5 -21 -5 -18 -2 -20 26 -16 22 4 31 1 31 -9 0
-8 -10 -14 -22 -14 -21 -1 -21 -2 -5 -11 13 -8 22 -4 41 16 17 18 26 22 29 13
4 -8 6 -7 6 5 1 20 -24 23 -33 5 -4 -7 -4 -3 -2 9 4 20 2 21 -16 12 -22 -12
-30 -9 -20 7 10 15 102 28 102 15 0 -6 -4 -11 -10 -11 -5 0 -10 -8 -10 -17 0
-15 2 -16 10 -3 7 12 10 8 10 -15 0 -23 -3 -27 -10 -15 -8 13 -10 13 -10 -1 0
-9 -7 -19 -15 -23 -16 -6 -21 -36 -5 -36 5 0 7 7 3 17 -5 13 -2 15 15 11 13
-4 22 -1 23 5 1 7 5 -1 10 -18 6 -22 7 -16 3 23 -3 36 -1 52 6 47 5 -3 10 0
10 9 0 8 6 17 13 19 7 4 6 6 -5 6 -9 1 -19 -5 -21 -11 -3 -8 -6 -6 -6 5 -1 9
4 18 9 18 6 1 15 3 20 4 6 1 13 3 18 4 4 1 0 6 -8 12 -11 8 -12 12 -2 16 6 2
12 9 12 14 0 6 -4 8 -9 5 -5 -4 -12 0 -14 6 -3 7 -6 3 -6 -10 -1 -13 -5 -20
-11 -17 -5 3 -10 1 -10 -4 0 -6 6 -11 13 -11 8 0 7 -3 -3 -9 -20 -13 -29 -5
-23 22 4 19 3 20 -7 5 -6 -10 -18 -18 -25 -18 -8 0 -15 -4 -15 -10 0 -5 -5
-10 -11 -10 -15 0 -39 26 -39 42 0 10 3 9 10 -2 8 -13 10 -12 10 3 0 9 -4 17
-10 17 -5 0 -10 8 -10 18 0 15 2 15 11 2 9 -13 10 -13 6 0 -5 19 -39 20 -45 1
-3 -8 0 -11 7 -7 7 4 9 1 5 -8 -5 -12 -9 -13 -19 -3 -7 7 -11 15 -8 19 2 4 -3
5 -11 2 -11 -4 -16 4 -19 38 -2 30 -4 34 -5 13z m25 -107 c-3 -7 -5 -2 -5 12
0 14 2 19 5 13 2 -7 2 -19 0 -25z m-34 7 c4 -8 2 -17 -3 -20 -6 -4 -10 3 -10
14 0 25 6 27 13 6z m-66 -37 c-1 -35 4 -52 11 -41 5 7 13 9 22 3 11 -7 12 -13
1 -36 l-12 -27 -15 27 c-8 16 -15 36 -15 45 -1 9 -5 3 -9 -14 l-8 -30 -1 33
c0 18 -7 32 -13 33 -7 1 -2 5 12 9 14 4 26 8 26 9 1 1 2 -5 1 -11z"/>
<path d="M932 370 c0 -19 2 -27 5 -17 2 9 2 25 0 35 -3 9 -5 1 -5 -18z"/>
<path d="M960 385 c-6 -8 -10 -22 -7 -32 3 -13 5 -11 7 7 1 23 2 23 10 5 8
-18 9 -17 9 8 1 31 -2 33 -19 12z"/>
<path d="M1394 388 c-4 -6 -3 -8 4 -4 6 3 13 -2 15 -11 4 -14 5 -13 6 5 1 23
-13 30 -25 10z"/>
<path d="M96 373 c-6 -14 -5 -15 5 -6 7 7 10 15 7 18 -3 3 -9 -2 -12 -12z"/>
<path d="M255 373 c4 -17 2 -23 -8 -23 -9 0 -18 6 -20 13 -4 8 -6 8 -6 0 -1
-6 -11 -9 -23 -7 l-23 5 23 -12 c12 -7 22 -21 22 -33 0 -18 -2 -19 -11 -6 -9
13 -10 13 -5 0 3 -8 9 -23 12 -33 5 -12 12 -16 23 -11 9 3 26 9 39 11 12 3 22
10 22 15 0 6 -6 8 -13 5 -8 -3 -20 -1 -28 3 -11 7 -9 13 10 29 13 11 28 18 32
15 5 -3 9 2 9 10 0 10 -6 13 -16 9 -11 -4 -23 1 -31 13 -14 18 -15 18 -8 -3z
m-15 -63 c0 -11 -4 -20 -9 -20 -5 0 -7 9 -4 20 3 11 7 20 9 20 2 0 4 -9 4 -20z"/>
<path d="M393 374 c-19 -20 -16 -38 3 -20 8 9 14 20 12 25 -2 5 -9 3 -15 -5z"/>
<path d="M691 363 c1 -22 2 -23 6 -8 3 11 10 23 17 27 7 5 5 8 -6 8 -13 0 -18
-7 -17 -27z"/>
<path d="M1051 374 c0 -11 3 -14 6 -6 3 7 2 16 -1 19 -3 4 -6 -2 -5 -13z"/>
<path d="M1011 364 c0 -11 3 -14 6 -6 3 7 2 16 -1 19 -3 4 -6 -2 -5 -13z"/>
<path d="M123 346 c-9 -10 -7 -19 7 -40 13 -21 19 -24 23 -13 3 9 -1 18 -9 21
-10 4 -13 13 -9 26 7 23 5 25 -12 6z"/>
<path d="M651 344 c0 -11 3 -14 6 -6 3 7 2 16 -1 19 -3 4 -6 -2 -5 -13z"/>
<path d="M1090 349 c0 -4 7 -9 15 -13 9 -3 15 0 15 8 0 7 -7 13 -15 13 -8 0
-15 -4 -15 -8z"/>
<path d="M1355 330 c-3 -5 -1 -10 4 -10 6 0 11 5 11 10 0 6 -2 10 -4 10 -3 0
-8 -4 -11 -10z"/>
<path d="M940 303 c0 -8 4 -12 9 -8 5 3 12 -3 14 -12 4 -17 5 -17 6 0 1 11 6
15 13 11 6 -4 8 -3 5 3 -11 18 -47 23 -47 6z"/>
<path d="M471 294 c0 -11 3 -14 6 -6 3 7 2 16 -1 19 -3 4 -6 -2 -5 -13z"/>
<path d="M1488 303 c7 -3 16 -2 19 1 4 3 -2 6 -13 5 -11 0 -14 -3 -6 -6z"/>
<path d="M4462 290 c0 -14 2 -19 5 -12 2 6 2 18 0 25 -3 6 -5 1 -5 -13z"/>
<path d="M165 289 c-11 -16 -1 -19 13 -3 7 8 8 14 3 14 -5 0 -13 -5 -16 -11z"/>
<path d="M787 293 c-4 -3 -7 -13 -6 -22 0 -12 3 -11 9 4 7 16 9 16 9 4 1 -21
31 -34 31 -14 0 8 -5 15 -11 15 -5 0 -7 5 -4 10 7 11 -18 14 -28 3z"/>
<path d="M840 282 c0 -5 7 -13 16 -16 10 -4 14 -1 12 6 -5 15 -28 23 -28 10z"/>
<path d="M693 264 c-7 -7 -9 -15 -4 -19 11 -6 41 4 41 15 0 15 -25 18 -37 4z"/>
<path d="M761 272 c0 -7 -5 -10 -11 -7 -5 3 -10 1 -10 -4 0 -6 5 -11 11 -11 6
0 9 -9 6 -20 -3 -11 -1 -20 4 -20 5 0 9 -9 9 -21 0 -11 -4 -17 -10 -14 -5 3
-10 -1 -10 -9 0 -10 6 -13 15 -10 8 4 15 16 14 28 0 27 -16 105 -18 88z"/>
<path d="M176 263 c-3 -4 -6 -11 -6 -16 0 -6 3 -8 6 -4 4 3 13 -1 21 -9 9 -8
17 -13 20 -10 3 2 -4 13 -15 24 -11 11 -23 18 -26 15z"/>
<path d="M621 261 c-11 -7 -9 -11 7 -20 16 -9 20 -8 18 4 -3 21 -10 25 -25 16z"/>
<path d="M661 254 c0 -11 3 -14 6 -6 3 7 2 16 -1 19 -3 4 -6 -2 -5 -13z"/>
<path d="M876 255 c-3 -8 -1 -15 4 -15 6 0 10 7 10 15 0 8 -2 15 -4 15 -2 0
-6 -7 -10 -15z"/>
<path d="M942 250 c0 -14 2 -19 5 -12 2 6 2 18 0 25 -3 6 -5 1 -5 -13z"/>
<path d="M1080 261 c0 -5 5 -13 10 -16 6 -3 10 -2 10 4 0 5 -4 13 -10 16 -5 3
-10 2 -10 -4z"/>
<path d="M4861 254 c0 -11 3 -14 6 -6 3 7 2 16 -1 19 -3 4 -6 -2 -5 -13z"/>
<path d="M1411 244 c0 -11 3 -14 6 -6 3 7 2 16 -1 19 -3 4 -6 -2 -5 -13z"/>
<path d="M4842 240 c0 -14 2 -19 5 -12 2 6 2 18 0 25 -3 6 -5 1 -5 -13z"/>
<path d="M835 240 c-3 -5 -1 -10 4 -10 6 0 11 5 11 10 0 6 -2 10 -4 10 -3 0
-8 -4 -11 -10z"/>
<path d="M1118 243 c6 -2 12 -14 13 -26 0 -21 1 -21 8 -2 8 19 9 18 13 -5 5
-23 5 -22 7 5 1 27 -3 31 -26 32 -16 1 -22 -1 -15 -4z"/>
<path d="M4810 240 c0 -5 5 -10 11 -10 5 0 7 5 4 10 -3 6 -8 10 -11 10 -2 0
-4 -4 -4 -10z"/>
<path d="M783 227 c4 -10 7 -24 7 -30 0 -8 3 -8 11 0 9 9 7 16 -7 30 -17 17
-18 17 -11 0z"/>
<path d="M1271 224 c0 -11 3 -14 6 -6 3 7 2 16 -1 19 -3 4 -6 -2 -5 -13z"/>
<path d="M1111 214 c0 -11 3 -14 6 -6 3 7 2 16 -1 19 -3 4 -6 -2 -5 -13z"/>
<path d="M1180 220 c-9 -6 -10 -10 -3 -10 6 0 15 5 18 10 8 12 4 12 -15 0z"/>
<path d="M4145 220 c-3 -5 -1 -10 4 -10 6 0 11 5 11 10 0 6 -2 10 -4 10 -3 0
-8 -4 -11 -10z"/>
<path d="M1735 210 c3 -5 8 -10 11 -10 2 0 4 5 4 10 0 6 -5 10 -11 10 -5 0 -7
-4 -4 -10z"/>
<path d="M4691 204 c0 -11 3 -14 6 -6 3 7 2 16 -1 19 -3 4 -6 -2 -5 -13z"/>
<path d="M4821 204 c0 -11 3 -14 6 -6 3 7 2 16 -1 19 -3 4 -6 -2 -5 -13z"/>
<path d="M1031 194 c0 -11 3 -14 6 -6 3 7 2 16 -1 19 -3 4 -6 -2 -5 -13z"/>
<path d="M636 181 c14 -12 22 -14 30 -7 15 14 15 14 -20 20 -28 5 -28 5 -10
-13z"/>
<path d="M712 180 c0 -14 2 -19 5 -12 2 6 2 18 0 25 -3 6 -5 1 -5 -13z"/>
<path d="M851 184 c0 -11 3 -14 6 -6 3 7 2 16 -1 19 -3 4 -6 -2 -5 -13z"/>
<path d="M1210 191 c0 -7 -5 -9 -12 -5 -7 5 -8 3 -3 -5 5 -9 10 -10 18 -2 6 6
8 14 4 18 -4 3 -7 1 -7 -6z"/>
<path d="M2001 184 c0 -11 3 -14 6 -6 3 7 2 16 -1 19 -3 4 -6 -2 -5 -13z"/>
<path d="M683 174 c-7 -7 -13 -17 -13 -22 0 -5 -7 -9 -15 -9 -8 0 -15 6 -15
12 0 6 -7 12 -15 12 -12 0 -10 -6 7 -25 13 -14 17 -22 11 -18 -7 4 -13 3 -13
-2 0 -6 7 -12 15 -16 9 -3 15 0 15 10 0 14 2 14 16 0 21 -22 24 -20 24 10 0
14 -4 23 -10 19 -5 -3 -10 -2 -10 4 0 5 5 11 12 13 6 2 9 9 7 15 -3 7 -8 7
-16 -3z"/>
<path d="M812 165 c0 -16 2 -22 5 -12 2 9 2 23 0 30 -3 6 -5 -1 -5 -18z"/>
<path d="M1841 174 c0 -11 3 -14 6 -6 3 7 2 16 -1 19 -3 4 -6 -2 -5 -13z"/>
<path d="M4715 180 c3 -5 8 -10 11 -10 2 0 4 5 4 10 0 6 -5 10 -11 10 -5 0 -7
-4 -4 -10z"/>
<path d="M1261 172 c1 -4 1 -14 0 -22 -1 -13 -2 -13 -11 0 -7 11 -10 8 -9 -15
0 -16 3 -25 5 -18 4 9 13 9 31 2 21 -8 24 -7 19 7 -3 8 -6 22 -6 29 0 7 -7 15
-15 19 -8 3 -14 2 -14 -2z m16 -34 c-3 -8 -6 -5 -6 6 -1 11 2 17 5 13 3 -3 4
-12 1 -19z"/>
<path d="M1420 162 c0 -6 9 -12 20 -15 11 -3 20 -3 20 -1 0 2 -9 8 -20 14 -11
6 -20 7 -20 2z"/>
<path d="M381 133 c-13 -12 -28 -20 -32 -17 -5 3 -9 1 -9 -5 0 -10 19 -18 58
-26 18 -3 20 1 16 33 -3 20 -6 36 -7 37 -1 1 -13 -9 -26 -22z"/>
<path d="M865 152 c-6 -4 -7 -26 -4 -52 3 -25 7 -37 7 -27 1 10 7 15 12 12 6
-3 10 1 10 10 0 9 -4 13 -10 10 -5 -3 -10 -2 -10 4 0 5 6 12 13 14 9 4 9 8 -2
15 -11 8 -11 10 0 15 8 3 10 6 4 6 -5 0 -14 -3 -20 -7z"/>
<path d="M928 152 c-11 -5 -14 -12 -9 -20 7 -11 10 -10 15 3 5 13 9 15 20 6
10 -9 16 -8 26 4 11 13 9 15 -11 14 -13 0 -32 -3 -41 -7z"/>
<path d="M1073 153 c-19 -7 -16 -53 2 -53 8 0 15 5 15 11 0 5 -4 7 -10 4 -5
-3 -10 0 -10 8 0 21 12 28 27 16 10 -9 13 -8 13 3 0 15 -14 18 -37 11z"/>
<path d="M1125 150 c-3 -6 1 -7 9 -4 18 7 21 14 7 14 -6 0 -13 -4 -16 -10z"/>
<path d="M1160 150 c0 -6 5 -8 10 -5 6 3 10 -4 11 -17 1 -23 1 -23 9 2 5 16 8
19 9 8 1 -9 5 -19 10 -22 5 -4 7 4 4 16 -4 19 -3 20 7 8 10 -13 11 -13 7 0 -4
18 -67 27 -67 10z"/>
<path d="M1321 144 c0 -11 3 -14 6 -6 3 7 2 16 -1 19 -3 4 -6 -2 -5 -13z"/>
<path d="M1395 150 c-3 -5 -1 -10 4 -10 6 0 11 5 11 10 0 6 -2 10 -4 10 -3 0
-8 -4 -11 -10z"/>
<path d="M4702 135 c0 -16 2 -22 5 -12 2 9 2 23 0 30 -3 6 -5 -1 -5 -18z"/>
<path d="M590 141 c0 -7 -4 -9 -10 -6 -5 3 -10 1 -10 -4 0 -6 9 -11 21 -11 11
0 18 -4 14 -10 -3 -5 -12 -7 -20 -3 -8 3 -15 0 -15 -7 0 -6 5 -8 10 -5 6 3 10
1 10 -5 0 -6 5 -8 12 -4 7 5 9 2 6 -7 -6 -15 9 -32 30 -37 15 -3 16 34 2 51
-6 7 -19 23 -30 36 -11 13 -20 19 -20 12z"/>
<path d="M711 124 c0 -11 3 -14 6 -6 3 7 2 16 -1 19 -3 4 -6 -2 -5 -13z"/>
<path d="M1001 118 c1 -18 2 -19 6 -5 2 9 9 14 15 11 7 -4 8 -2 4 4 -12 20
-26 13 -25 -10z"/>
<path d="M1141 124 c0 -11 3 -14 6 -6 3 7 2 16 -1 19 -3 4 -6 -2 -5 -13z"/>
<path d="M1430 130 c0 -6 4 -10 9 -10 5 0 12 -8 14 -17 4 -14 5 -13 6 3 0 12
-6 24 -14 28 -8 3 -15 1 -15 -4z"/>
<path d="M1491 124 c0 -11 3 -14 6 -6 3 7 2 16 -1 19 -3 4 -6 -2 -5 -13z"/>
<path d="M2091 124 c0 -11 3 -14 6 -6 3 7 2 16 -1 19 -3 4 -6 -2 -5 -13z"/>
<path d="M437 116 c-3 -8 -1 -17 6 -20 9 -3 8 -7 -3 -15 -17 -12 -13 -18 15
-23 13 -2 20 3 23 17 2 16 1 17 -7 5 -8 -12 -11 -8 -11 18 0 33 -14 43 -23 18z"/>
<path d="M785 120 c-3 -5 -1 -10 4 -10 6 0 11 5 11 10 0 6 -2 10 -4 10 -3 0
-8 -4 -11 -10z"/>
<path d="M1385 120 c3 -5 8 -10 11 -10 2 0 4 5 4 10 0 6 -5 10 -11 10 -5 0 -7
-4 -4 -10z"/>
<path d="M2071 114 c0 -11 3 -14 6 -6 3 7 2 16 -1 19 -3 4 -6 -2 -5 -13z"/>
<path d="M3821 114 c0 -11 3 -14 6 -6 3 7 2 16 -1 19 -3 4 -6 -2 -5 -13z"/>
<path d="M743 109 c-13 -5 -23 -13 -23 -19 0 -6 5 -8 10 -5 6 3 10 -1 10 -9 0
-10 -6 -13 -15 -10 -8 4 -15 10 -15 14 0 14 -43 5 -47 -10 -4 -13 -3 -13 6 0
8 11 11 12 11 2 0 -7 5 -10 10 -7 6 4 10 -6 11 -22 l1 -28 8 25 8 25 2 -25 c1
-21 2 -22 9 -6 7 17 8 17 24 2 14 -15 17 -15 17 -3 0 9 6 17 13 20 9 3 9 7 1
18 -7 8 -13 21 -15 30 -3 13 -9 15 -26 8z"/>
<path d="M1911 104 c0 -11 3 -14 6 -6 3 7 2 16 -1 19 -3 4 -6 -2 -5 -13z"/>
<path d="M950 100 c-8 -6 -10 -10 -5 -10 6 0 3 -5 -5 -10 -9 -6 -10 -10 -3
-10 6 0 14 4 18 10 3 5 13 7 23 4 10 -4 13 -2 7 3 -5 4 -12 11 -15 15 -3 4
-12 3 -20 -2z"/>
<path d="M2338 103 c7 -3 16 -2 19 1 4 3 -2 6 -13 5 -11 0 -14 -3 -6 -6z"/>
<path d="M781 95 c-1 -18 27 -47 34 -36 3 6 1 11 -5 11 -6 0 -8 5 -4 12 4 6 3
8 -4 4 -5 -3 -13 0 -15 6 -3 7 -6 9 -6 3z"/>
<path d="M1215 64 c-13 -27 -19 -33 -30 -24 -9 8 -14 7 -19 -5 -4 -12 4 -15
44 -15 37 0 50 4 50 14 0 8 6 16 13 19 6 2 8 8 4 13 -5 5 -15 1 -23 -10 -13
-19 -14 -19 -14 8 0 18 4 25 12 20 7 -4 8 -3 4 4 -12 20 -23 14 -41 -24z"/>
<path d="M499 73 c-12 -14 -12 -16 0 -8 11 6 13 4 8 -8 -7 -19 8 -23 18 -7 5
8 12 7 22 -2 26 -21 43 -18 43 8 0 13 -6 24 -12 25 -7 0 -25 3 -39 5 -17 3
-31 -2 -40 -13z"/>
<path d="M1138 83 c7 -3 16 -2 19 1 4 3 -2 6 -13 5 -11 0 -14 -3 -6 -6z"/>
<path d="M1327 77 c-4 -12 -1 -20 11 -24 9 -4 22 -13 28 -21 9 -12 13 -13 19
-2 5 8 4 11 -3 6 -6 -3 -13 3 -17 14 -4 11 -10 18 -15 15 -5 -3 -10 3 -12 12
-3 17 -4 17 -11 0z"/>
<path d="M1290 63 c0 -13 5 -23 10 -23 13 0 13 11 0 30 -8 12 -10 11 -10 -7z"/>
<path d="M1410 75 c0 -5 5 -17 10 -25 5 -8 10 -10 10 -5 0 6 -5 17 -10 25 -5
8 -10 11 -10 5z"/>
<path d="M3969 63 c-8 -9 -9 -14 -2 -10 6 4 14 1 16 -5 3 -7 6 -3 6 10 1 26
-2 27 -20 5z"/>
<path d="M1130 45 c0 -14 4 -25 9 -25 4 0 6 11 3 25 -6 32 -12 32 -12 0z"/>
<path d="M1585 52 c-3 -8 -3 -17 0 -20 3 -3 5 0 5 6 0 6 10 12 23 14 l22 3
-22 7 c-15 4 -24 1 -28 -10z"/>
<path d="M1675 60 c3 -5 8 -10 11 -10 2 0 4 5 4 10 0 6 -5 10 -11 10 -5 0 -7
-4 -4 -10z"/>
<path d="M1010 42 c0 -17 5 -23 17 -20 9 2 18 9 21 17 3 9 0 11 -8 6 -7 -4
-16 -2 -21 6 -6 10 -9 8 -9 -9z"/>
<path d="M4585 50 c3 -5 10 -10 16 -10 5 0 9 5 9 10 0 6 -7 10 -16 10 -8 0
-12 -4 -9 -10z"/>
<path d="M823 35 c0 -6 6 -12 14 -12 7 0 13 6 13 12 0 6 -6 12 -13 12 -8 0
-14 -6 -14 -12z"/>
<path d="M951 38 c-1 -13 7 -18 24 -18 16 0 25 6 25 15 0 12 -4 13 -19 5 -14
-7 -21 -6 -24 3 -3 7 -6 5 -6 -5z"/>
<path d="M1100 40 c-8 -5 -12 -11 -9 -14 2 -3 11 -1 19 4 8 5 12 11 9 14 -2 3
-11 1 -19 -4z"/>
<path d="M1961 34 c0 -11 3 -14 6 -6 3 7 2 16 -1 19 -3 4 -6 -2 -5 -13z"/>
<path d="M1981 34 c0 -11 3 -14 6 -6 3 7 2 16 -1 19 -3 4 -6 -2 -5 -13z"/>
<path d="M2000 30 c0 -5 5 -10 11 -10 5 0 7 5 4 10 -3 6 -8 10 -11 10 -2 0 -4
-4 -4 -10z"/>
<path d="M633 23 c9 -2 23 -2 30 0 6 3 -1 5 -18 5 -16 0 -22 -2 -12 -5z"/>
<path d="M788 23 c7 -3 16 -2 19 1 4 3 -2 6 -13 5 -11 0 -14 -3 -6 -6z"/>
</g>
</svg>
